<mxfile host="app.diagrams.net" modified="2021-01-26T20:24:59.744Z" agent="5.0 (Windows NT 10.0; Win64; x64) AppleWebKit/537.36 (KHTML, like Gecko) Chrome/87.0.4280.141 Safari/537.36" etag="dxrI5LTja-iOPDrZrm9G" version="14.2.7" type="github">
  <diagram id="u1fkQQDr6D0V8gyoSWst" name="Page-1">
    <mxGraphModel dx="1422" dy="794" grid="1" gridSize="10" guides="1" tooltips="1" connect="1" arrows="1" fold="1" page="1" pageScale="1" pageWidth="850" pageHeight="1100" math="0" shadow="0">
      <root>
        <mxCell id="0" />
        <mxCell id="1" parent="0" />
        <mxCell id="y3JvYY2zDxFvZ2Sxwo1U-21" value="year_range_func.py" style="whiteSpace=wrap;html=1;rounded=0;shadow=1;dashed=0;fontSize=15;strokeColor=#10739e;fillColor=#b1ddf0;glass=0;labelBackgroundColor=none;sketch=0;labelPosition=center;verticalLabelPosition=top;align=center;verticalAlign=bottom;fontStyle=1" parent="1" vertex="1">
          <mxGeometry x="200" y="85" width="380" height="235" as="geometry" />
        </mxCell>
        <mxCell id="y3JvYY2zDxFvZ2Sxwo1U-29" value="&lt;font color=&quot;#000000&quot;&gt;create_yearRange_list&lt;/font&gt;" style="rounded=0;whiteSpace=wrap;html=1;shadow=0;glass=0;labelBackgroundColor=none;sketch=0;fillColor=#fad9d5;fontSize=15;labelPosition=center;verticalLabelPosition=top;align=center;verticalAlign=bottom;strokeColor=#ae4132;fontStyle=2" parent="1" vertex="1">
          <mxGeometry x="230" y="110" width="320" height="80" as="geometry" />
        </mxCell>
        <mxCell id="y3JvYY2zDxFvZ2Sxwo1U-30" value="Given inputs in format YYYY, creates list of years including start_year &amp;amp; end_year in format YYYY&amp;nbsp;" style="text;html=1;strokeColor=none;align=left;verticalAlign=middle;whiteSpace=wrap;rounded=0;shadow=0;glass=0;labelBackgroundColor=none;sketch=0;fontSize=15;" parent="1" vertex="1">
          <mxGeometry x="240" y="140" width="280" height="20" as="geometry" />
        </mxCell>
        <mxCell id="y3JvYY2zDxFvZ2Sxwo1U-31" value="&lt;font color=&quot;#000000&quot;&gt;create_yearRange_2YYYY_list&lt;/font&gt;" style="rounded=0;whiteSpace=wrap;html=1;shadow=0;glass=0;labelBackgroundColor=none;sketch=0;fillColor=#fad9d5;fontSize=15;labelPosition=center;verticalLabelPosition=top;align=center;verticalAlign=bottom;strokeColor=#ae4132;fontStyle=2" parent="1" vertex="1">
          <mxGeometry x="230" y="220" width="320" height="80" as="geometry" />
        </mxCell>
        <mxCell id="y3JvYY2zDxFvZ2Sxwo1U-32" value="Given inputs in format YYYY, creates list of years including start_year &amp;amp; end_year in format 2YYYY (required for some NBA API endpoints)" style="text;html=1;strokeColor=none;align=left;verticalAlign=middle;whiteSpace=wrap;rounded=0;shadow=0;glass=0;labelBackgroundColor=none;sketch=0;fontSize=15;" parent="1" vertex="1">
          <mxGeometry x="240" y="250" width="280" height="20" as="geometry" />
        </mxCell>
        <mxCell id="y3JvYY2zDxFvZ2Sxwo1U-33" value="" style="group" parent="1" vertex="1" connectable="0">
          <mxGeometry x="70" y="172.5" width="130" height="60" as="geometry" />
        </mxCell>
        <mxCell id="y3JvYY2zDxFvZ2Sxwo1U-7" value="" style="html=1;shadow=1;dashed=0;align=center;verticalAlign=middle;shape=mxgraph.arrows2.calloutArrow;dy=10;dx=20;notch=90;arrowHead=10;rounded=1;glass=0;labelBackgroundColor=#FFFFFF;sketch=0;fillColor=#d5e8d4;fontSize=15;strokeColor=#82b366;" parent="y3JvYY2zDxFvZ2Sxwo1U-33" vertex="1">
          <mxGeometry width="130" height="60" as="geometry" />
        </mxCell>
        <mxCell id="y3JvYY2zDxFvZ2Sxwo1U-9" value="start_year" style="text;html=1;align=center;verticalAlign=middle;whiteSpace=wrap;rounded=0;shadow=0;glass=0;labelBackgroundColor=none;sketch=0;fontSize=15;fontColor=#333333;" parent="y3JvYY2zDxFvZ2Sxwo1U-33" vertex="1">
          <mxGeometry y="10" width="90" height="20" as="geometry" />
        </mxCell>
        <mxCell id="y3JvYY2zDxFvZ2Sxwo1U-14" value="end_year" style="text;html=1;align=center;verticalAlign=middle;whiteSpace=wrap;rounded=0;shadow=0;glass=0;labelBackgroundColor=none;sketch=0;fontSize=15;fontColor=#333333;" parent="y3JvYY2zDxFvZ2Sxwo1U-33" vertex="1">
          <mxGeometry y="30" width="90" height="20" as="geometry" />
        </mxCell>
        <mxCell id="y3JvYY2zDxFvZ2Sxwo1U-35" value="" style="endArrow=classic;html=1;fontSize=15;fontColor=#000000;" parent="1" edge="1">
          <mxGeometry width="50" height="50" relative="1" as="geometry">
            <mxPoint x="580" y="202" as="sourcePoint" />
            <mxPoint x="620" y="202" as="targetPoint" />
          </mxGeometry>
        </mxCell>
        <mxCell id="y3JvYY2zDxFvZ2Sxwo1U-37" value="season_range_list" style="rounded=0;whiteSpace=wrap;html=1;shadow=0;glass=0;labelBackgroundColor=none;sketch=0;fillColor=#d5e8d4;fontSize=15;align=center;strokeColor=#82b366;" parent="1" vertex="1">
          <mxGeometry x="620" y="172.5" width="150" height="60" as="geometry" />
        </mxCell>
      </root>
    </mxGraphModel>
  </diagram>
</mxfile>
